<svg xmlns="http://www.w3.org/2000/svg" viewBox="0 0 1600 1000" role="img" aria-labelledby="title desc">
  <title id="title">Ruta B - Argumento</title>
  <desc id="desc">Identidad institucional construida desde premisa y conclusión.</desc>
  <rect width="1600" height="1000" fill="#E9E2D7"/>
  <text x="90" y="82" fill="#825F3D" font-family="Arial, sans-serif" font-size="18" font-weight="700" letter-spacing="8">RUTA B / ARGUMENTO</text>
  <text x="90" y="130" fill="#71685E" font-family="Arial, sans-serif" font-size="16" letter-spacing="2">Método · estructura · capacidad institucional</text>

  <g transform="translate(90 212)">
    <rect width="360" height="360" fill="#171411"/>
    <path d="M70 68H216V112H120V176H204V220H120V292H70Z" fill="#E9E2D7"/>
    <path d="M218 92L279 292L336 92" fill="none" stroke="#B47D43" stroke-width="31"/>
    <path d="M238 68V313" stroke="#E9E2D7" stroke-width="4"/>
    <path d="M45 316H315" stroke="#B47D43" stroke-width="4"/>
  </g>

  <g transform="translate(535 245)">
    <text x="0" y="58" fill="#825F3D" font-family="Arial, sans-serif" font-size="22" font-weight="700" letter-spacing="13">FAUSTO</text>
    <text x="-5" y="182" fill="#171411" font-family="Georgia, serif" font-size="116" font-weight="700" letter-spacing="-3">VÁSQUEZ</text>
    <text x="2" y="235" fill="#655D54" font-family="Arial, sans-serif" font-size="18" font-weight="700" letter-spacing="8">ABOGADOS</text>
    <line x1="2" y1="272" x2="805" y2="272" stroke="#B47D43" stroke-width="2"/>
    <text x="2" y="318" fill="#655D54" font-family="Arial, sans-serif" font-size="14" letter-spacing="5">DEFENSA · ESTRATEGIA · PENSAMIENTO JURÍDICO</text>
  </g>

  <line x1="90" y1="632" x2="1510" y2="632" stroke="#C3B9AC"/>

  <g transform="translate(90 690)">
    <text x="0" y="0" fill="#825F3D" font-family="Arial, sans-serif" font-size="15" font-weight="700" letter-spacing="5">SISTEMA DE DOCUMENTOS</text>
    <rect x="0" y="35" width="235" height="195" fill="#FFFFFF"/>
    <rect x="0" y="35" width="14" height="195" fill="#171411"/>
    <text x="38" y="76" fill="#825F3D" font-family="Arial" font-size="9" font-weight="700" letter-spacing="3">CONFIDENCIAL</text>
    <text x="38" y="119" fill="#171411" font-family="Georgia, serif" font-size="22">Memorando</text>
    <text x="38" y="150" fill="#171411" font-family="Georgia, serif" font-size="22">estratégico</text>
    <rect x="260" y="35" width="235" height="195" fill="#171411"/>
    <text x="292" y="80" fill="#B47D43" font-family="Arial" font-size="10" letter-spacing="3">FV / 01</text>
    <text x="292" y="128" fill="#E9E2D7" font-family="Georgia, serif" font-size="25">Informe de</text>
    <text x="292" y="160" fill="#E9E2D7" font-family="Georgia, serif" font-size="25">riesgo penal</text>
  </g>

  <g transform="translate(760 690)">
    <text x="0" y="0" fill="#825F3D" font-family="Arial, sans-serif" font-size="15" font-weight="700" letter-spacing="5">PALETA</text>
    <rect x="0" y="35" width="120" height="120" fill="#171411"/>
    <rect x="140" y="35" width="120" height="120" fill="#E9E2D7" stroke="#CEC3B5"/>
    <rect x="280" y="35" width="120" height="120" fill="#B47D43"/>
    <rect x="420" y="35" width="120" height="120" fill="#53504B"/>
    <text x="0" y="184" fill="#71685E" font-family="Arial" font-size="12">Carbón</text>
    <text x="140" y="184" fill="#71685E" font-family="Arial" font-size="12">Caliza</text>
    <text x="280" y="184" fill="#71685E" font-family="Arial" font-size="12">Cobre</text>
    <text x="420" y="184" fill="#71685E" font-family="Arial" font-size="12">Grafito</text>
  </g>
</svg>
